<svg width="206" height="22" viewBox="0 0 206 22" fill="none" xmlns="http://www.w3.org/2000/svg">
<path d="M14.674 7.283C14.3453 6.74167 13.891 6.326 13.311 6.036C12.7503 5.746 12.0833 5.601 11.31 5.601C9.87933 5.601 8.74833 6.065 7.917 6.993C7.105 7.921 6.699 9.168 6.699 10.734C6.699 12.4933 7.134 13.837 8.004 14.765C8.89333 15.6737 10.179 16.128 11.861 16.128C13.8523 16.128 15.2733 15.229 16.124 13.431H10.411V9.342H21.025V14.852C20.5803 15.9347 19.923 16.9497 19.053 17.897C18.2023 18.8443 17.1197 19.6273 15.805 20.246C14.4903 20.8453 12.992 21.145 11.31 21.145C9.26067 21.145 7.44333 20.71 5.858 19.84C4.292 18.9507 3.074 17.723 2.204 16.157C1.35333 14.5717 0.928 12.764 0.928 10.734C0.928 8.72333 1.35333 6.935 2.204 5.369C3.074 3.78367 4.292 2.556 5.858 1.686C7.424 0.796666 9.23167 0.352 11.281 0.352C13.8523 0.352 15.979 0.970666 17.661 2.208C19.343 3.44533 20.387 5.137 20.793 7.283H14.674ZM36.5062 17.665H29.2562L28.1542 21H22.1802L29.6332 0.554999H36.1872L43.6112 21H37.6082L36.5062 17.665ZM35.0852 13.315L32.8812 6.703L30.7062 13.315H35.0852ZM69.3308 0.554999V21H63.6468V9.719L59.7898 21H55.0338L51.1478 9.632V21H45.4638V0.554999H52.3368L57.4698 13.837L62.4868 0.554999H69.3308ZM78.2504 5.108V8.443H84.7754V12.764H78.2504V16.447H85.6454V21H72.5664V0.554999H85.6454V5.108H78.2504ZM104.027 21L102.374 19.434C100.537 20.6907 98.3431 21.319 95.7911 21.319C94.1864 21.319 92.7847 21.058 91.5861 20.536C90.4067 20.014 89.4884 19.2793 88.8311 18.332C88.1931 17.3847 87.8741 16.2923 87.8741 15.055C87.8741 13.8177 88.1931 12.6963 88.8311 11.691C89.4884 10.6663 90.4647 9.835 91.7601 9.197C91.2767 8.57833 90.9287 7.98867 90.7161 7.428C90.5034 6.86733 90.3971 6.268 90.3971 5.63C90.3971 4.62467 90.6581 3.70633 91.1801 2.875C91.7021 2.04367 92.4657 1.38633 93.4711 0.902999C94.4957 0.400332 95.7041 0.148999 97.0961 0.148999C98.5074 0.148999 99.7061 0.409999 100.692 0.931999C101.678 1.43467 102.413 2.11133 102.896 2.962C103.399 3.79333 103.64 4.702 103.621 5.688H98.3721C98.3721 5.24333 98.2464 4.905 97.9951 4.673C97.7437 4.441 97.4344 4.325 97.0671 4.325C96.6804 4.325 96.3517 4.441 96.0811 4.673C95.8297 4.88567 95.7041 5.18533 95.7041 5.572C95.7041 6.24867 96.1874 7.07033 97.1541 8.037L101.939 12.706C102.113 12.358 102.297 11.9423 102.49 11.459L103.07 10.415H108.696L107.855 12.039C107.159 13.7017 106.395 15.1033 105.564 16.244L110.436 21H104.027ZM96.1681 16.766C97.1927 16.766 98.1014 16.5437 98.8941 16.099L94.8631 12.242C94.3604 12.5513 93.9834 12.909 93.7321 13.315C93.4807 13.721 93.3551 14.1367 93.3551 14.562C93.3551 15.1807 93.6064 15.7027 94.1091 16.128C94.6117 16.5533 95.2981 16.766 96.1681 16.766ZM127.472 0.554999V5.079H122.02V21H116.336V5.079H110.942V0.554999H127.472ZM139.928 21L135.868 13.46H135.259V21H129.575V0.554999H138.536C140.18 0.554999 141.572 0.844999 142.712 1.425C143.853 1.98567 144.713 2.76867 145.293 3.774C145.873 4.76 146.163 5.87167 146.163 7.109C146.163 8.501 145.777 9.72867 145.003 10.792C144.249 11.836 143.138 12.5803 141.668 13.025L146.279 21H139.928ZM135.259 9.574H138.072C138.846 9.574 139.426 9.39033 139.812 9.023C140.199 8.65567 140.392 8.124 140.392 7.428C140.392 6.77067 140.189 6.25833 139.783 5.891C139.397 5.50433 138.826 5.311 138.072 5.311H135.259V9.574ZM154.432 5.108V8.443H160.957V12.764H154.432V16.447H161.827V21H148.748V0.554999H161.827V5.108H154.432ZM183.573 21H177.889L170.32 9.574V21H164.636V0.554999H170.32L177.889 12.126V0.554999H183.573V21ZM194.902 0.554999C197.048 0.554999 198.923 0.989999 200.528 1.86C202.152 2.71067 203.399 3.90933 204.269 5.456C205.139 7.00267 205.574 8.77167 205.574 10.763C205.574 12.735 205.129 14.4943 204.24 16.041C203.37 17.5877 202.123 18.8057 200.499 19.695C198.894 20.565 197.028 21 194.902 21H186.811V0.554999H194.902ZM194.467 15.983C196.129 15.983 197.434 15.5287 198.382 14.62C199.329 13.7113 199.803 12.4257 199.803 10.763C199.803 9.081 199.329 7.78567 198.382 6.877C197.434 5.949 196.129 5.485 194.467 5.485H192.495V15.983H194.467Z" fill="white"/>
</svg>
